<svg width="0" height="0" class="hidden">
  <symbol xmlns="http://www.w3.org/2000/svg" fill="none" viewBox="0 0 62 64" id="pinterest">
    <path d="M62 32C62 49.125 48.125 63 31 63C27.8 63 24.725 62.5125 21.825 61.6125C23.0875 59.55 24.975 56.175 25.675 53.4875C26.05 52.0375 27.6 46.1125 27.6 46.1125C28.6125 48.0375 31.5625 49.675 34.7 49.675C44.05 49.675 50.7875 41.075 50.7875 30.3875C50.7875 20.15 42.425 12.4875 31.675 12.4875C18.3 12.4875 11.1875 21.4625 11.1875 31.25C11.1875 35.8 13.6125 41.4625 17.475 43.2625C18.0625 43.5375 18.375 43.4125 18.5125 42.85C18.6125 42.425 19.1375 40.3125 19.375 39.3375C19.45 39.025 19.4125 38.75 19.1625 38.45C17.9 36.8875 16.875 34.0375 16.875 31.375C16.875 24.5375 22.05 17.925 30.875 17.925C38.4875 17.925 43.825 23.1125 43.825 30.5375C43.825 38.925 39.5875 44.7375 34.075 44.7375C31.0375 44.7375 28.75 42.225 29.4875 39.1375C30.3625 35.45 32.05 31.475 32.05 28.8125C32.05 26.4375 30.775 24.45 28.125 24.45C25.0125 24.45 22.5125 27.6625 22.5125 31.975C22.5125 34.725 23.4375 36.575 23.4375 36.575C23.4375 36.575 20.375 49.55 19.8125 51.975C19.1875 54.65 19.4375 58.425 19.7 60.875C8.175 56.3625 0 45.1375 0 32C0 14.875 13.875 1 31 1C48.125 1 62 14.875 62 32Z" fill="#FFF"></path>
  </symbol>
  <symbol fill="none" xmlns="http://www.w3.org/2000/svg" viewBox="0 0 20 17" id="twitter-icon">
    <path d="M17.9441 4.0482C17.9568 4.22586 17.9568 4.40355 17.9568 4.58121C17.9568 9.99996 13.8325 16.2436 6.29441 16.2436C3.97207 16.2436 1.81473 15.571 0 14.4036C0.329961 14.4416 0.647187 14.4543 0.989844 14.4543C2.90605 14.4543 4.67004 13.8071 6.07867 12.703C4.27664 12.665 2.76648 11.4848 2.24617 9.86039C2.5 9.89844 2.75379 9.92383 3.02031 9.92383C3.38832 9.92383 3.75637 9.87305 4.09898 9.78426C2.22082 9.40351 0.812148 7.75379 0.812148 5.76141V5.71066C1.35781 6.01523 1.99238 6.20559 2.66492 6.23094C1.56086 5.49488 0.837539 4.23855 0.837539 2.81723C0.837539 2.05582 1.04055 1.35785 1.3959 0.748711C3.41367 3.23602 6.44668 4.86035 9.84766 5.03805C9.78422 4.73348 9.74613 4.41625 9.74613 4.09898C9.74613 1.84008 11.5736 0 13.8451 0C15.0253 0 16.0913 0.494922 16.84 1.29441C17.7664 1.11676 18.6547 0.774102 19.4416 0.30457C19.137 1.25637 18.4898 2.05586 17.6395 2.56344C18.4644 2.47465 19.2639 2.24617 19.9999 1.92895C19.4416 2.74109 18.7436 3.46441 17.9441 4.0482Z" fill="#FFF"></path>
  </symbol>
  <symbol xmlns="http://www.w3.org/2000/svg" fill="none" viewBox="0 0 72 64" id="youtube">
    <path d="M68.7068 15.5104C67.9217 12.5541 65.6084 10.2259 62.6713 9.43575C57.3475 8 35.9999 8 35.9999 8C35.9999 8 14.6524 8 9.32853 9.43575C6.39141 10.226 4.07816 12.5541 3.29303 15.5104C1.86653 20.8687 1.86653 32.0485 1.86653 32.0485C1.86653 32.0485 1.86653 43.2282 3.29303 48.5866C4.07816 51.5429 6.39141 53.7741 9.32853 54.5643C14.6524 56 35.9999 56 35.9999 56C35.9999 56 57.3474 56 62.6713 54.5643C65.6084 53.7741 67.9217 51.5429 68.7068 48.5866C70.1333 43.2282 70.1333 32.0485 70.1333 32.0485C70.1333 32.0485 70.1333 20.8687 68.7068 15.5104ZM29.018 42.1989V21.8981L46.8604 32.0488L29.018 42.1989Z" fill="#FFF"></path>
  </symbol>
  <symbol fill="none" xmlns="http://www.w3.org/2000/svg" viewBox="0 0 10 19" id="facebook-icon">
    <path d="M9.34469 10.5025L9.86325 7.12348H6.62096V4.93071C6.62096 4.00627 7.07388 3.10517 8.526 3.10517H10V0.228284C10 0.228284 8.66239 0 7.38349 0C4.71337 0 2.96806 1.61841 2.96806 4.54817V7.12348H0V10.5025H2.96806V18.6711H6.62096V10.5025H9.34469Z" fill="#FFF"></path>
  </symbol>
  <symbol xmlns="http://www.w3.org/2000/svg" fill="none" viewBox="0 0 56 64" id="linkedin">
    <path d="M52 4H3.9875C1.7875 4 0 5.8125 0 8.0375V55.9625C0 58.1875 1.7875 60 3.9875 60H52C54.2 60 56 58.1875 56 55.9625V8.0375C56 5.8125 54.2 4 52 4ZM16.925 52H8.625V25.275H16.9375V52H16.925ZM12.775 21.625C10.1125 21.625 7.9625 19.4625 7.9625 16.8125C7.9625 14.1625 10.1125 12 12.775 12C15.425 12 17.5875 14.1625 17.5875 16.8125C17.5875 19.475 15.4375 21.625 12.775 21.625ZM48.0375 52H39.7375V39C39.7375 35.9 39.675 31.9125 35.425 31.9125C31.1 31.9125 30.4375 35.2875 30.4375 38.775V52H22.1375V25.275H30.1V28.925H30.2125C31.325 26.825 34.0375 24.6125 38.075 24.6125C46.475 24.6125 48.0375 30.15 48.0375 37.35V52Z" fill="#FFF"></path>
  </symbol>
</svg>